<svg xmlns="http://www.w3.org/2000/svg" viewBox="0 0 320.2 190"><defs><style>      .cls-1 {        fill: #3c005a;      }      .cls-2 {        fill: #009ee2;      }      .cls-3 {        fill: #e84e1b;      }      .cls-4 {        fill: #ff438e;      }      .cls-5 {        fill: #009540;      }    </style></defs><g><g id="Calque_1"><g><path class="cls-1" d="M43.6,47.9v9.9c0,.8.2,1.4.9,1.4s1.2-.3,2.1-1v3.5c-2,1.1-3.5,1.6-5.2,1.6s-2.8-.7-3.2-2.2c-1.9,1.5-3.9,2.2-6.1,2.2-3.5,0-5.7-2.4-5.7-5.3,0-4.8,5.2-6.3,11.7-8.4v-.9c0-2.6-1.3-3.5-3.7-3.5s-5.3,1.2-7.4,3.7v-5.1c2.1-2,4.9-3,8.2-3,5.4,0,8.4,2.8,8.4,6.9ZM34.6,60c1.2,0,2.4-.6,3.5-1.7v-5.9c-4.3,1.5-6.3,2.7-6.3,4.8s1.1,2.7,2.7,2.7Z"></path><path class="cls-1" d="M62,31.4v4.5c-.8-.3-1.8-.4-2.6-.4-2.2,0-3.5,1.3-3.5,5v.9h3.9v4.3h-3.9v17.3h-5.5v-17.3h-3.2v-4.3h3.2v-.8c0-6.1,3.1-9.6,8.2-9.6s2.4.1,3.4.4Z"></path><path class="cls-1" d="M83,49.9v13.2h-5.4v-12.6c0-3.9-1.8-5.1-4-5.1s-3.6,1.1-5,3.2v14.5h-5.4v-21.7h5.4v2.9c2-2.3,4.6-3.3,6.9-3.3,5,0,7.5,3.5,7.5,8.9Z"></path><path class="cls-1" d="M111,52.2c0,7.4-5.8,11.3-11.9,11.3s-11.8-5.5-11.8-11.2,4.4-11.3,11.9-11.3,11.8,4.6,11.8,11.3ZM92.9,52.2c0,4.2,2.6,6.7,6.2,6.7s6.1-2.7,6.1-6.7-2.9-6.7-6.3-6.7-6,2.6-6,6.7Z"></path><path class="cls-1" d="M132.2,43.1l-2.5,5.1c-1.2-1.2-2.7-2-3.9-2-2.2,0-4.6,2.1-5.1,6v10.8h-5.4v-21.7h5.4v5.1c2-3.7,4.2-5.5,6.6-5.5s3.3.8,4.9,2.2Z"></path></g><g><path class="cls-4" d="M104.8,134.5h4.3l7.1-15.7h33.1l7.1,15.7h4.6l-26.1-56.5h-4l-26.1,56.5ZM118.1,115.1l14.8-32.5,14.8,32.5h-29.6Z"></path><path class="cls-4" d="M162.7,135.5h-6.8l-7.1-15.7h-31.8l-7.1,15.7h-6.5l27.1-58.5h5.3l.3.6,26.8,58ZM157.2,133.5h2.4l-25.2-54.5h-2.7l-25.2,54.5h2.1l7.1-15.7h34.4l7.1,15.7ZM149.2,116.1h-32.7l16.4-35.9,16.3,35.9ZM119.6,114.1h26.5l-13.2-29.1-13.3,29.1Z"></path></g><g><path class="cls-4" d="M191.3,97.5c3.5-1.6,6.5-3.7,8.9-6.4,2.5-2.7,4.4-5.8,5.7-9.3,1.4-3.5,2-7.2,2-11,0,0,0-.1,0-.2,0-3.8-.7-7.5-2-11-1.3-3.5-3.2-6.5-5.7-9.2-2.5-2.6-5.4-4.8-8.9-6.3-3.5-1.6-7.3-2.4-11.5-2.4s-8.2.8-11.6,2.4c-3.5,1.6-6.4,3.7-8.9,6.4-2.5,2.7-4.4,5.8-5.7,9.3-1.4,3.5-2,7.2-2,11v.2c0,3.8.7,7.5,2,11,1.3,3.5,3.2,6.5,5.7,9.2,2.5,2.6,5.4,4.8,8.9,6.3,3.4,1.6,7.3,2.4,11.6,2.4s8.1-.8,11.6-2.4M170.2,94.1c-2.9-1.3-5.5-3.1-7.6-5.4-2.1-2.3-3.8-4.9-5-8-1.2-3.1-1.8-6.3-1.8-9.8v-.2c0-3.5.6-6.7,1.8-9.8,1.2-3,2.8-5.7,4.9-8,2.1-2.3,4.6-4.1,7.5-5.4,2.9-1.3,6.1-2,9.6-2s6.7.7,9.6,2c2.9,1.3,5.5,3.1,7.6,5.4,2.1,2.3,3.8,4.9,5,8,1.2,3.1,1.8,6.3,1.8,9.8v.2c0,3.5-.6,6.7-1.8,9.8-1.2,3-2.8,5.7-4.9,8-2.1,2.3-4.6,4.1-7.5,5.4-2.9,1.3-6.1,2-9.6,2s-6.7-.7-9.6-2"></path><path class="cls-4" d="M179.7,100.9c-4.4,0-8.4-.8-12-2.5-3.6-1.6-6.6-3.8-9.2-6.6-2.5-2.7-4.5-5.9-5.9-9.5-1.4-3.6-2.1-7.4-2.1-11.3v-.2c0-4,.7-7.8,2.1-11.4,1.4-3.6,3.4-6.8,5.9-9.6,2.5-2.8,5.6-5,9.2-6.6,3.6-1.6,7.6-2.5,12-2.5s8.4.8,12,2.5c3.6,1.6,6.7,3.8,9.2,6.6,2.5,2.7,4.5,5.9,5.9,9.5,1.3,3.5,2,7.3,2.1,11.1,0,.2,0,.4,0,.6,0,3.9-.7,7.6-2.1,11.2-1.4,3.6-3.4,6.8-5.9,9.6-2.5,2.8-5.7,5-9.3,6.6h0c-3.6,1.6-7.7,2.5-12,2.5ZM179.9,42.8c-4.1,0-7.9.8-11.2,2.3-3.3,1.5-6.2,3.6-8.6,6.1-2.4,2.6-4.2,5.6-5.5,8.9-1.3,3.4-2,7-2,10.7v.2c0,3.7.7,7.3,1.9,10.6,1.3,3.3,3.1,6.3,5.5,8.9,2.4,2.5,5.2,4.6,8.5,6.1,3.3,1.5,7.1,2.3,11.2,2.3s7.8-.8,11.2-2.3c3.4-1.5,6.3-3.6,8.6-6.1,2.4-2.6,4.2-5.6,5.5-8.9,1.3-3.4,2-7,2-10.7v-.2c0-3.7-.7-7.3-1.9-10.6-1.3-3.3-3.1-6.3-5.5-8.9-2.4-2.5-5.2-4.6-8.6-6.1-3.3-1.5-7.1-2.3-11.1-2.3ZM179.9,97.1c-3.6,0-7-.7-10-2.1h0c-3-1.4-5.7-3.3-7.9-5.6-2.2-2.4-3.9-5.2-5.2-8.3-1.2-3.2-1.9-6.6-1.9-10.2v-.2c0-3.6.6-7,1.8-10.1,1.2-3.2,2.9-5.9,5.1-8.3,2.2-2.4,4.8-4.2,7.9-5.6,3-1.4,6.4-2.1,10-2.1s7,.7,10,2.1c3,1.4,5.7,3.3,7.9,5.6,2.2,2.4,3.9,5.2,5.2,8.3,1.2,3.2,1.9,6.6,1.9,10.2v.2c0,3.6-.6,7-1.8,10.1-1.2,3.2-2.9,5.9-5.1,8.3-2.2,2.4-4.8,4.2-7.9,5.6-3,1.4-6.4,2.1-10,2.1ZM179.7,46.6c-3.3,0-6.4.6-9.2,1.9-2.8,1.2-5.2,3-7.2,5.1-2,2.2-3.6,4.7-4.7,7.7-1.1,2.9-1.7,6.1-1.7,9.4v.2c0,3.3.6,6.5,1.7,9.5,1.2,2.9,2.8,5.5,4.8,7.7,2,2.2,4.5,3.9,7.3,5.2h0c2.8,1.3,5.9,1.9,9.2,1.9s6.4-.6,9.2-1.9c2.8-1.2,5.2-3,7.2-5.1,2-2.2,3.6-4.7,4.7-7.7,1.1-2.9,1.7-6.1,1.7-9.4v-.2c0-3.3-.6-6.5-1.7-9.5-1.2-2.9-2.8-5.5-4.8-7.7-2-2.2-4.5-3.9-7.3-5.2-2.8-1.3-5.9-1.9-9.2-1.9Z"></path></g><g><path class="cls-4" d="M51.5,134.5h24.3c3,0,5.8-.4,8.2-1.1,2.5-.7,4.6-1.7,6.3-3,1.8-1.3,3.1-2.9,4.1-4.8,1-1.9,1.4-4,1.4-6.4v-.2c0-1.9-.3-3.6-1-5.1-.7-1.5-1.6-2.7-2.8-3.8-1.1-1.1-2.5-2-4-2.7-1.5-.7-3.1-1.3-4.8-1.7,1.1-.5,2.3-1.1,3.4-1.8,1.1-.7,2.2-1.6,3.1-2.7.9-1.1,1.6-2.3,2.2-3.8.6-1.4.8-3.1.8-5.1v-.2c0-3.5-1.2-6.4-3.6-8.8-1.5-1.6-3.6-2.8-6-3.7-2.5-.9-5.3-1.3-8.5-1.3h-23.1v56.1ZM55.6,104.4v-22.2h18.9c4.5,0,8,1,10.4,2.9,2.4,1.9,3.6,4.4,3.6,7.6v.2c0,1.9-.4,3.6-1.1,5-.7,1.5-1.7,2.7-3,3.6-1.3,1-2.8,1.7-4.6,2.2-1.8.5-3.7.8-5.8.8h-18.5ZM55.6,130.8v-22.6h19c5.6,0,9.8,1,12.7,2.9,2.9,1.9,4.4,4.6,4.4,8.1v.2c0,3.5-1.4,6.3-4.3,8.4-2.8,2.1-6.7,3.1-11.5,3.1h-20.4Z"></path><path class="cls-4" d="M75.8,135.5h-25.3v-58.1h24.1c3.3,0,6.3.5,8.9,1.4,2.6.9,4.8,2.2,6.4,3.9,2.6,2.6,3.9,5.8,3.9,9.5v.2c0,2-.3,3.9-.9,5.4-.6,1.5-1.4,2.9-2.4,4.1-1,1.1-2.1,2.1-3.3,2.9-.4.3-.8.5-1.2.7.9.3,1.7.7,2.5,1,1.6.8,3.1,1.7,4.3,2.9,1.2,1.2,2.2,2.6,3,4.1.8,1.6,1.1,3.5,1.1,5.5v.2c0,2.5-.5,4.8-1.5,6.8-1,2-2.5,3.8-4.4,5.2-1.8,1.4-4.1,2.4-6.6,3.2-2.5.7-5.4,1.1-8.5,1.1ZM52.5,133.5h23.3c2.9,0,5.6-.3,8-1,2.3-.7,4.4-1.7,6-2.9,1.6-1.2,2.9-2.7,3.8-4.5.9-1.7,1.3-3.7,1.3-5.9v-.2c0-1.8-.3-3.3-.9-4.7-.6-1.3-1.5-2.5-2.5-3.5-1.1-1-2.3-1.9-3.8-2.5-1.5-.7-3-1.3-4.6-1.7l-2.8-.7,2.7-1.2c1.1-.5,2.2-1,3.3-1.7,1.1-.7,2-1.5,2.9-2.5.8-1,1.5-2.2,2-3.5.5-1.3.8-2.9.8-4.7v-.2c0-3.2-1.1-5.9-3.3-8.1-1.4-1.4-3.3-2.6-5.7-3.4-2.4-.8-5.1-1.3-8.2-1.3h-22.1v54.1ZM76,131.8h-21.4v-24.6h20c5.7,0,10.2,1,13.3,3,3.2,2.1,4.8,5.1,4.8,8.9v.2c0,3.9-1.6,7-4.7,9.2-3,2.2-7.1,3.3-12.1,3.3ZM56.6,129.8h19.4c4.6,0,8.2-1,10.9-2.9,2.6-1.9,3.8-4.4,3.8-7.6v-.2c0-3.2-1.3-5.5-3.9-7.3-2.7-1.8-6.8-2.7-12.2-2.7h-18v20.6ZM74.2,105.4h-19.5v-24.2h19.9c4.8,0,8.5,1,11,3.1,2.6,2.1,4,4.9,4,8.3v.2c0,2-.4,3.9-1.2,5.5-.8,1.6-1.9,2.9-3.3,4-1.4,1-3,1.8-4.9,2.4-1.8.5-3.9.8-6.1.8ZM56.6,103.4h17.5c2,0,3.8-.2,5.5-.7,1.6-.5,3.1-1.2,4.2-2.1,1.2-.9,2.1-2,2.7-3.3.6-1.3,1-2.8,1-4.6v-.2c0-2.8-1.1-5-3.2-6.8-2.2-1.8-5.5-2.7-9.8-2.7h-17.9v20.2Z"></path></g><g><path class="cls-1" d="M217.3,81.3l10.7,7.5"></path><path class="cls-2" d="M228,90.3c-.3,0-.6,0-.9-.3l-10.7-7.5c-.7-.5-.8-1.4-.4-2.1.5-.7,1.4-.8,2.1-.4l10.7,7.5c.7.5.8,1.4.4,2.1-.3.4-.8.6-1.2.6Z"></path></g><g><line class="cls-5" x1="217.3" y1="58.3" x2="228" y2="50.8"></line><path class="cls-5" d="M217.3,59.8c-.5,0-.9-.2-1.2-.6-.5-.7-.3-1.6.4-2.1l10.7-7.5c.7-.5,1.6-.3,2.1.4.5.7.3,1.6-.4,2.1l-10.7,7.5c-.3.2-.6.3-.9.3Z"></path></g><g><line class="cls-3" x1="217.3" y1="70" x2="229.7" y2="70"></line><path class="cls-3" d="M229.7,71.5h-12.4c-.8,0-1.5-.7-1.5-1.5s.7-1.5,1.5-1.5h12.4c.8,0,1.5.7,1.5,1.5s-.7,1.5-1.5,1.5Z"></path></g><g><path class="cls-1" d="M176.8,115.1h2.6v7.7c1.1-.8,2.3-1.2,3.6-1.2s3,.6,4,1.9c1,1.2,1.6,2.8,1.6,4.8s-.6,3.8-1.9,5c-1.3,1.2-2.9,1.9-5,1.9s-1.7,0-2.7-.3-1.7-.4-2.2-.7v-19.1ZM179.3,125.3v7.1c.9.3,1.8.4,2.7.4s2.1-.4,2.8-1.2c.7-.8,1.1-1.9,1.1-3.1s-.3-2.3-1-3.2-1.6-1.2-2.6-1.2-1.9.4-2.9,1.3Z"></path><path class="cls-1" d="M197.6,121.9c2,0,3.6.6,4.9,1.9,1.3,1.3,2,2.9,2,4.8s-.7,3.4-2,4.7c-1.3,1.2-3,1.9-5,1.9s-3.6-.6-4.9-1.9c-1.3-1.3-2-2.8-2-4.7s.7-3.5,2-4.8c1.3-1.3,3-1.9,5-1.9ZM197.5,124.2c-1.2,0-2.3.4-3,1.2s-1.2,1.8-1.2,3.1.4,2.3,1.2,3.1c.8.8,1.9,1.2,3.1,1.2s2.3-.4,3.1-1.2c.8-.8,1.2-1.8,1.2-3.1s-.4-2.3-1.3-3.1c-.8-.8-1.9-1.2-3.2-1.2Z"></path><path class="cls-1" d="M215.7,134.9v-1.7c-.5.6-1.2,1.1-1.9,1.4-.7.3-1.4.5-2.1.5s-1.6-.2-2.3-.6c-.7-.4-1.2-1-1.6-1.7-.4-.7-.5-1.9-.5-3.5v-7.5h2.6v7.4c0,1.4.2,2.3.6,2.9s1.1.8,2.1.8,2.3-.6,3.1-1.8v-9.3h2.6v13h-2.6Z"></path><path class="cls-1" d="M231.7,131.9v2.5c-1.3.5-2.6.7-3.8.7-2,0-3.7-.6-4.9-1.8s-1.8-2.8-1.8-4.9.6-3.7,1.8-5c1.2-1.3,2.7-1.9,4.7-1.9s1.3,0,1.8.2c.5.1,1.2.4,2,.7v2.7c-1.3-.8-2.5-1.2-3.6-1.2s-2.1.4-2.9,1.2c-.7.8-1.1,1.9-1.1,3.1s.4,2.4,1.2,3.2c.8.8,1.9,1.2,3.3,1.2s2.1-.3,3.4-.9Z"></path><path class="cls-1" d="M234.5,115.1h2.6v8.5c1.1-1.3,2.4-2,4-2s1.6.2,2.3.7c.7.4,1.2,1,1.5,1.8s.5,1.9.5,3.4v7.4h-2.6v-8.1c0-1-.2-1.7-.7-2.3-.5-.6-1.1-.9-1.8-.9s-1.1.1-1.6.4-1.1.8-1.7,1.5v9.3h-2.6v-19.8Z"></path><path class="cls-1" d="M260.2,128.6h-9.2c0,1.2.5,2.2,1.3,3s1.8,1.1,3,1.1,3.3-.5,4.7-1.6v2.5c-.8.5-1.6.9-2.4,1.1-.8.2-1.7.3-2.7.3s-2.6-.3-3.5-.9c-.9-.6-1.6-1.4-2.1-2.4-.5-1-.8-2.2-.8-3.5,0-2,.6-3.6,1.7-4.8,1.1-1.2,2.6-1.9,4.4-1.9s3.1.6,4.1,1.8,1.5,2.8,1.5,4.9v.3ZM251.1,127.1h6.6c0-1-.4-1.8-.9-2.4s-1.3-.8-2.2-.8-1.7.3-2.3.8-1,1.4-1.2,2.4Z"></path><path class="cls-1" d="M185.1,151.1v5.5c0,.4.2.7.5.7s.8-.2,1.5-.7v1.6c-.6.4-1.1.6-1.4.8-.4.1-.7.2-1.1.2-1.1,0-1.8-.4-2-1.3-1.1.8-2.3,1.3-3.5,1.3s-1.7-.3-2.3-.9c-.6-.6-.9-1.4-.9-2.3s.3-1.6.9-2.2,1.4-1.2,2.5-1.5l3.3-1.1v-.7c0-1.6-.8-2.4-2.4-2.4s-2.8.7-4.1,2.2v-2.8c1-1.2,2.4-1.8,4.3-1.8s2.5.4,3.4,1.1c.3.2.5.5.8.9.2.4.4.8.4,1.2s0,1.1,0,2.2ZM181.1,138.8l2,4.2h-1.6l-3.3-4.2h2.9ZM182.5,156.3v-3.9l-1.7.7c-.9.3-1.5.7-1.9,1.1-.4.4-.5.8-.5,1.3s.2,1,.5,1.3.8.5,1.3.5c.8,0,1.6-.3,2.3-1Z"></path><path class="cls-1" d="M203.5,145.9c2,0,3.6.6,4.9,1.9s2,2.9,2,4.8-.7,3.4-2,4.7c-1.3,1.2-3,1.9-5,1.9s-3.6-.6-4.9-1.9c-1.3-1.3-2-2.8-2-4.7s.7-3.5,2-4.8c1.3-1.3,3-1.9,5-1.9ZM203.4,148.2c-1.2,0-2.3.4-3,1.2-.8.8-1.2,1.8-1.2,3.1s.4,2.3,1.2,3.1c.8.8,1.9,1.2,3.1,1.2s2.3-.4,3.1-1.2c.8-.8,1.2-1.8,1.2-3.1s-.4-2.3-1.3-3.1c-.8-.8-1.9-1.2-3.2-1.2Z"></path><path class="cls-1" d="M216.1,145.9v3-.2c1.4-2,2.6-3,3.9-3s2,.5,3,1.5l-1.4,2.3c-.9-.8-1.7-1.3-2.5-1.3s-1.5.4-2.2,1.2c-.6.8-.9,1.7-.9,2.8v6.8h-2.6v-13h2.6Z"></path><path class="cls-1" d="M235.3,152.6h-9.2c0,1.2.5,2.2,1.3,3s1.8,1.1,3,1.1,3.3-.5,4.7-1.6v2.5c-.8.5-1.6.9-2.4,1.1-.8.2-1.7.3-2.7.3s-2.6-.3-3.5-.9c-.9-.6-1.6-1.4-2.1-2.4-.5-1-.8-2.2-.8-3.5,0-2,.6-3.6,1.7-4.8,1.1-1.2,2.6-1.9,4.4-1.9s3.1.6,4.1,1.8c1,1.2,1.5,2.8,1.5,4.9v.3ZM226.2,151.1h6.6c0-1-.4-1.8-.9-2.4-.5-.6-1.3-.8-2.2-.8s-1.7.3-2.3.8c-.6.6-1,1.3-1.2,2.4Z"></path><path class="cls-1" d="M239.4,140.4c.4,0,.8.1,1.1.4s.5.7.5,1.1-.2.8-.5,1.1-.7.5-1.1.5-.7-.2-1-.5c-.3-.3-.5-.7-.5-1.1s.2-.7.5-1.1c.3-.3.7-.5,1-.5ZM238.2,145.9h2.6v13h-2.6v-13Z"></path><path class="cls-1" d="M244.5,139.1h2.6v19.8h-2.6v-19.8Z"></path><path class="cls-1" d="M250.9,139.1h2.6v19.8h-2.6v-19.8Z"></path><path class="cls-1" d="M268.3,152.6h-9.2c0,1.2.5,2.2,1.3,3s1.8,1.1,3,1.1,3.3-.5,4.7-1.6v2.5c-.8.5-1.6.9-2.4,1.1-.8.2-1.7.3-2.7.3s-2.6-.3-3.5-.9c-.9-.6-1.6-1.4-2.1-2.4-.5-1-.8-2.2-.8-3.5,0-2,.6-3.6,1.7-4.8,1.1-1.2,2.6-1.9,4.4-1.9s3.1.6,4.1,1.8c1,1.2,1.5,2.8,1.5,4.9v.3ZM259.2,151.1h6.6c0-1-.4-1.8-.9-2.4-.5-.6-1.3-.8-2.2-.8s-1.7.3-2.3.8c-.6.6-1,1.3-1.2,2.4Z"></path></g></g></g></svg>