<?xml version="1.0" encoding="UTF-8" standalone="no"?>
<!DOCTYPE svg PUBLIC "-//W3C//DTD SVG 1.1//EN" "http://www.w3.org/Graphics/SVG/1.1/DTD/svg11.dtd">
<!-- Created with Vectornator (http://vectornator.io/) -->
<svg height="100%" stroke-miterlimit="10" style="fill-rule:nonzero;clip-rule:evenodd;stroke-linecap:round;stroke-linejoin:round;" version="1.1" viewBox="0 0 240.975 155.925" width="100%" xml:space="preserve" xmlns="http://www.w3.org/2000/svg" xmlns:xlink="http://www.w3.org/1999/xlink">
<defs/>
<g id="Calque-4">
<path d="M62.0029 21.5342C63.6632 21.5342 65.0486 21.5952 66.1592 21.6904C67.2756 21.7861 68.3875 21.906 69.4717 22.0654C70.5502 22.224 71.6705 22.4668 72.8467 22.7529C74.0196 23.0382 75.3794 23.4299 76.9092 23.9717C78.4383 24.5132 79.8255 25.0866 81.0967 25.6904C82.3636 26.2922 83.9916 27.2261 85.9717 28.4717C87.8075 29.6265 88.5285 30.875 88.2529 32.2529C87.9286 33.8744 87.6967 35.3563 87.5342 36.7217C87.3707 38.0947 87.1966 42.0152 87.0029 48.5029C86.8097 54.9762 86.6904 59.9882 86.6904 63.5342C86.6904 67.0791 86.75 70.4965 86.8467 73.7842C86.9433 77.0711 87.0605 80.1341 87.2217 83.0029C87.3829 85.8729 87.619 88.9355 87.9092 92.1592C88.1994 95.3837 88.5534 98.5034 88.9404 101.503C89.3273 104.502 89.7094 107.148 90.0967 109.472C90.4848 111.801 91.2201 115.296 92.2842 119.972C93.3486 124.649 94.1988 128.052 94.8467 130.19C95.4937 132.325 96.0759 134.105 96.6279 135.534C97.1802 136.964 97.7896 138.388 98.4717 139.784C98.978 140.821 99.3823 141.52 99.7842 142.222C98.9593 141.635 97.9526 140.89 96.1592 139.472C94.0106 137.772 91.5455 135.693 88.7842 133.253C86.0246 130.814 83.058 127.995 79.8467 124.784C76.6353 121.573 73.462 118.191 70.3467 114.69C67.2312 111.19 63.7347 107.043 59.8779 102.222C56.0208 97.4003 51.9371 92.0135 47.5967 86.0654C43.2632 80.1269 40.4937 76.1041 39.3154 74.0342C38.1347 71.9599 37.172 70.0343 36.4404 68.2529C35.7066 66.4663 35.1358 64.8111 34.6904 63.2842C34.2437 61.7526 33.8824 60.3691 33.6279 59.0967C33.3733 57.8237 33.1925 56.5847 33.0654 55.4092C32.9383 54.2333 32.8473 52.9375 32.8154 51.5029C32.7837 50.0752 32.8438 48.5325 33.0029 46.8779C33.162 45.2234 33.3753 43.827 33.6279 42.6904C33.8814 41.5498 34.1864 40.4834 34.5342 39.4717C34.8825 38.4584 35.2786 37.4524 35.7217 36.5029C36.1638 35.5555 36.6527 34.6382 37.2217 33.7217C37.7875 32.8101 38.4926 31.8588 39.3467 30.8467C40.2006 29.8346 41.0603 28.9449 41.8779 28.2217C42.6966 27.4974 43.5585 26.8512 44.4717 26.2529C45.3889 25.652 46.3049 25.1019 47.2529 24.6279C48.1974 24.1556 49.269 23.7268 50.4717 23.3154C51.6755 22.9036 52.8938 22.5686 54.0967 22.3154C55.3029 22.0615 56.5158 21.8798 57.7217 21.7529C58.9257 21.6262 60.3458 21.5342 62.0029 21.5342Z" fill="#000000" fill-rule="nonzero" opacity="1" stroke="none"/>
</g>
<g id="Calque-2">
<path d="M122.347 1.56541C123.251 1.50303 124.479 1.53224 126.065 1.65916C127.643 1.78535 129.235 2.06055 130.847 2.50291C132.458 2.94511 134.164 3.61538 135.94 4.47166C137.716 5.32787 139.505 6.38803 141.284 7.65916C143.069 8.934 144.695 10.2594 146.159 11.6279C147.622 12.9956 149.009 14.5035 150.347 16.1592C151.686 17.817 152.714 19.2092 153.409 20.3467C154.11 21.4935 154.712 22.6092 155.253 23.6904C155.795 24.7744 156.278 25.7687 156.659 26.6904C157.039 27.6078 157.314 28.4365 157.534 29.1904C157.69 29.7237 157.308 30.4626 156.253 31.3467C155.047 32.357 153.772 33.5437 152.44 34.9404C151.103 36.3431 148.561 39.53 144.784 44.5342C141.016 49.5267 137.861 53.8318 135.347 57.4092C132.834 60.9853 130.683 64.1379 128.878 66.8779C127.073 69.6178 125.277 72.445 123.472 75.3779C121.666 78.3113 120.076 80.9909 118.722 83.3779C117.365 85.7685 115.512 89.2971 113.159 94.0029C110.806 98.7085 109.159 102.119 108.222 104.253C107.285 106.384 106.405 108.557 105.565 110.753C104.725 112.95 104.023 114.971 103.44 116.815C102.857 118.662 102.331 120.56 101.878 122.503C101.424 124.448 101.074 126.252 100.847 127.909C100.646 129.37 100.546 130.673 100.472 131.909C100.352 131.556 100.212 131.159 100.128 130.909C99.3606 128.639 98.5269 125.631 97.5967 121.878C96.666 118.123 95.8643 114.351 95.1904 110.597C94.5164 106.841 93.9229 102.807 93.4092 98.4717C92.8955 94.1373 92.4804 89.245 92.1592 83.8154C91.8379 78.3862 91.66 72.1967 91.6279 65.2217C91.5957 58.243 91.6243 52.4427 91.7529 47.8467C91.8813 43.2568 92.0606 39.9223 92.2842 37.8467C92.5071 35.7766 92.8981 33.6115 93.4404 31.3467C93.9826 29.0823 94.6145 27.0065 95.3467 25.0967C96.0794 23.1852 96.9235 21.3469 97.8467 19.6279C98.7716 17.9057 99.6165 16.4881 100.409 15.3467C101.205 14.2004 101.962 13.2017 102.659 12.3779C103.358 11.5516 104.054 10.7957 104.784 10.0654C105.513 9.33705 106.333 8.60803 107.222 7.87791C108.11 7.14798 108.992 6.47896 109.847 5.90916C110.701 5.33985 111.525 4.85116 112.378 4.40916C113.222 3.97144 114.447 3.48029 116.003 2.94041C117.557 2.40116 118.757 2.03339 119.628 1.87791C120.511 1.72017 121.431 1.62854 122.347 1.56541Z" fill="#000000" fill-rule="nonzero" opacity="1" stroke="none"/>
</g>
<g id="Calque-5">
<path d="M183.94 23.8779C184.787 23.8152 186.035 23.8142 187.659 23.8779C189.275 23.9413 190.712 24.0947 191.972 24.3467C193.236 24.5996 194.428 24.9361 195.597 25.3467C196.759 25.755 198.018 26.3375 199.378 27.0967C200.74 27.8566 201.816 28.5349 202.597 29.1592C203.387 29.7914 204.152 30.4643 204.847 31.1592C205.543 31.8552 206.155 32.5287 206.69 33.1904C207.223 33.8488 207.865 34.7951 208.628 36.0029C209.388 37.2062 210.087 38.4823 210.722 39.8779C211.358 41.2772 211.902 42.6683 212.347 44.0342C212.791 45.3992 213.213 47.0865 213.628 49.0654C214.042 51.0408 214.313 52.8217 214.44 54.4404C214.568 56.0623 214.598 57.7807 214.534 59.5967C214.47 61.4148 214.35 63.0124 214.159 64.3779C213.968 65.7446 213.668 67.28 213.253 69.0029C212.84 70.7198 212.208 72.7051 211.378 74.9404C210.547 77.1773 209.736 79.0987 208.94 80.6904C208.143 82.2853 207.095 84.1102 205.815 86.1904C204.536 88.2695 203.163 90.331 201.659 92.3467C200.154 94.3642 198.544 96.3303 196.847 98.2842C195.148 100.239 193.245 102.291 191.128 104.44C189.011 106.59 186.575 108.906 183.847 111.378C181.116 113.851 177.799 116.724 173.878 120.003C169.955 123.283 166.345 126.243 163.065 128.847C159.786 131.451 155.94 134.409 151.534 137.722C147.129 141.034 143.784 143.49 141.472 145.128C139.164 146.762 137.517 147.869 136.565 148.44C135.613 149.012 134.468 149.645 133.097 150.315C131.729 150.983 130.368 151.558 129.034 152.034C127.704 152.509 126.422 152.875 125.19 153.128C123.965 153.379 122.7 153.503 121.378 153.534C120.059 153.566 118.902 153.502 117.909 153.315C116.915 153.129 115.964 152.843 115.097 152.472C114.229 152.1 113.434 151.623 112.659 151.065C111.883 150.506 111.185 149.904 110.565 149.222C109.941 148.534 109.378 147.784 108.878 147.003C108.377 146.219 107.882 145.325 107.409 144.284C106.935 143.242 106.567 142.227 106.284 141.284C106.001 140.341 105.755 139.298 105.565 138.128C105.376 136.962 105.253 135.589 105.222 134.034C105.19 132.473 105.221 131.319 105.284 130.534C105.347 129.746 105.497 128.568 105.753 127.003C106.008 125.44 106.31 124.024 106.628 122.784C106.945 121.548 107.662 119.303 108.815 116.034C109.97 112.763 111.366 109.226 113.003 105.472C114.64 101.717 116.539 97.7711 118.69 93.5967C120.842 89.4221 123.185 85.2102 125.69 81.0029C128.196 76.794 130.803 72.6467 133.534 68.5342C136.265 64.4215 139.817 59.3291 144.222 53.2842C148.625 47.2416 151.651 43.2382 153.284 41.2529C154.915 39.2708 156.298 37.7385 157.409 36.6592C158.523 35.5769 159.787 34.4944 161.19 33.3779C162.594 32.2616 163.919 31.2978 165.159 30.5029C166.401 29.707 167.667 28.9526 168.972 28.2842C170.28 27.614 171.396 27.1021 172.315 26.7217C173.232 26.3424 174.471 25.9189 176.034 25.4404C177.592 24.9634 179.075 24.6005 180.503 24.3467C181.936 24.0919 183.091 23.9408 183.94 23.8779Z" fill="#000000" fill-rule="nonzero" opacity="1" stroke="none"/>
</g>
</svg>
